# xmcd
#
# Track frame offsets: 
#        150
#        31758
#        55592
#        59273
#        66334
#        112444
#        134701
#        144750
#        159723
#        183810
#        200518
#        233558
#        242596
#
# Disc length: 3413 seconds
#
# Revision: 4
# Processed by: cddbd v1.5.2PL0 Copyright (c) Steve Scherf et al.
# Submitted via: ExactAudioCopy v1.0b2
#
DISCID=b60d530d
DTITLE=Aldo Romano - Origine
DYEAR=2010
DGENRE=Jazz
TTITLE0=Silenzio
TTITLE1=Pasolini
TTITLE2=Il Camino part1
TTITLE3=Il Camino part2
TTITLE4=Gamelan
TTITLE5=Touch of woman
TTITLE6=Elis
TTITLE7=Celestina
TTITLE8=Dreams and waters
TTITLE9=Starless night
TTITLE10=For michel
TTITLE11=Il Camino part3
TTITLE12=Jazz messengers
EXTD=YEAR: 2010
EXTT0=
EXTT1=
EXTT2=
EXTT3=
EXTT4=
EXTT5=
EXTT6=
EXTT7=
EXTT8=
EXTT9=
EXTT10=
EXTT11=
EXTT12=
PLAYORDER=
